<?xml version="1.0" encoding="UTF-8" standalone="no"?>
<!-- Created with Inkscape (http://www.inkscape.org/) -->

<svg
   xmlns:dc="http://purl.org/dc/elements/1.1/"
   xmlns:cc="http://creativecommons.org/ns#"
   xmlns:rdf="http://www.w3.org/1999/02/22-rdf-syntax-ns#"
   xmlns:svg="http://www.w3.org/2000/svg"
   xmlns="http://www.w3.org/2000/svg"
   xmlns:sodipodi="http://sodipodi.sourceforge.net/DTD/sodipodi-0.dtd"
   xmlns:inkscape="http://www.inkscape.org/namespaces/inkscape"
   id="svg3344"
   version="1.1"
   inkscape:version="0.91 r13725"
   xml:space="preserve"
   width="1052.5"
   height="743.75"
   viewBox="0 0 1052.5 743.75"
   sodipodi:docname="OJC main logo PMS.svg"><metadata
     id="metadata3350"><rdf:RDF><cc:Work
         rdf:about=""><dc:format>image/svg+xml</dc:format><dc:type
           rdf:resource="http://purl.org/dc/dcmitype/StillImage" /><dc:title></dc:title></cc:Work></rdf:RDF></metadata><defs
     id="defs3348"><clipPath
       clipPathUnits="userSpaceOnUse"
       id="clipPath3360"><path
         d="m 0.1115232,499.6637 840.7174768,0 0,-405.6637 -840.7174768,0 0,405.6637 z"
         id="path3362"
         inkscape:connector-curvature="0" /></clipPath><clipPath
       clipPathUnits="userSpaceOnUse"
       id="clipPath3366"><path
         d="m 0,94 842,0 0,407 L 0,501 0,94 Z"
         id="path3368"
         inkscape:connector-curvature="0" /></clipPath><clipPath
       clipPathUnits="userSpaceOnUse"
       id="clipPath3376"><path
         d="m 0,94 842,0 0,407 L 0,501 0,94 Z"
         id="path3378"
         inkscape:connector-curvature="0" /></clipPath><clipPath
       clipPathUnits="userSpaceOnUse"
       id="clipPath3466"><path
         d="m 389.8832,337.0369 11.4125,0 18.2117,43.1037 18.4553,-43.1037 11.4125,0 -24.2842,54.1519 -11.0463,0 -24.1615,-54.1519 z m -13.3549,63.2188 0,-11.1691 85.8356,28.7749 0,11.169 -85.8356,-28.7748 z m 30.1168,45.2003 13.3568,0.6097 -7.1635,-11.1709 6.5575,-3.8829 6.0687,11.775 6.0706,-11.775 6.6765,3.8829 -7.1635,11.1709 13.3568,-0.6097 0,7.6505 -13.3568,-0.6041 7.1635,11.288 -6.6765,3.7658 -6.0706,-11.7787 -6.0687,11.7787 -6.5575,-3.7658 7.1635,-11.288 -13.3568,0.6041 0,-7.6505 z m 13.7675,-148.0061 c -55.8415,0 -101.1087,45.2672 -101.1087,101.1087 0,55.8416 45.2672,101.1051 101.1087,101.1051 55.8416,0 101.107,-45.2635 101.107,-101.1051 0,-55.8415 -45.2654,-101.1087 -101.107,-101.1087"
         id="path3468"
         inkscape:connector-curvature="0" /></clipPath><clipPath
       clipPathUnits="userSpaceOnUse"
       id="clipPath3472"><path
         d="m 0,94 842,0 0,407 L 0,501 0,94 Z"
         id="path3474"
         inkscape:connector-curvature="0" /></clipPath><linearGradient
       x1="0"
       y1="0"
       x2="1"
       y2="0"
       gradientUnits="userSpaceOnUse"
       gradientTransform="matrix(0,-202.2138,-202.2138,0,420.4108,499.6637)"
       spreadMethod="pad"
       id="linearGradient3478"><stop
         style="stop-opacity:1;stop-color:#51bbed"
         offset="0"
         id="stop3480" /><stop
         style="stop-opacity:1;stop-color:#1161a5"
         offset="1"
         id="stop3482" /></linearGradient></defs><sodipodi:namedview
     pagecolor="#ffffff"
     bordercolor="#666666"
     borderopacity="1"
     objecttolerance="10"
     gridtolerance="10"
     guidetolerance="10"
     inkscape:pageopacity="0"
     inkscape:pageshadow="2"
     inkscape:window-width="1520"
     inkscape:window-height="855"
     id="namedview3346"
     showgrid="false"
     inkscape:zoom="0.87798319"
     inkscape:cx="526.25"
     inkscape:cy="371.875"
     inkscape:window-x="0"
     inkscape:window-y="0"
     inkscape:window-maximized="0"
     inkscape:current-layer="g3352"
     showguides="false" /><g
     id="g3352"
     inkscape:groupmode="layer"
     inkscape:label="OJC main logo PMS"
     transform="matrix(1.25,0,0,-1.25,0,743.75)"><g
       id="g3354" /><g
       id="g3356"><g
         id="g3358"
         clip-path="url(#clipPath3360)"><g
           id="g3364"
           clip-path="url(#clipPath3366)"><path
             d="m 40.95131,202.3225 c 0,13.0946 -3.99625,17.7563 -11.20808,17.7563 -7.32521,0 -12.20807,-4.5483 -12.20807,-17.866 0,-13.4293 4.3271,-18.7563 11.76384,-18.7563 7.21369,0 11.65231,4.9925 11.65231,18.866 z M 0,201.657 c 0,18.4218 9.65419,30.4087 29.96442,30.4087 20.53142,0 28.52205,-12.2081 28.52205,-29.1875 0,-18.866 -9.54452,-31.0759 -29.96442,-31.0759 C 8.211823,171.8023 0,184.2334 0,201.657"
             style="fill:#1f242d;fill-opacity:1;fill-rule:nonzero;stroke:none"
             id="path3370"
             inkscape:connector-curvature="0" /></g></g></g><g
       id="g3372"><g
         id="g3374"
         clip-path="url(#clipPath3376)"><path
           d="m 77.34876,239.8351 c -6.32708,0 -10.10028,3.6617 -10.10028,9.9869 0,6.3253 3.7732,9.7658 10.10028,9.7658 6.43675,0 10.09842,-3.4405 10.09842,-9.7658 0,-6.3252 -3.66167,-9.9869 -10.09842,-9.9869 z m -6.9925,-22.3083 c 0,1.3327 -0.33271,1.9981 -1.44237,2.3308 l -6.32708,2.1097 1.3327,8.9887 23.19496,0 0,-63.702 c 0,-13.3177 -6.9925,-18.866 -19.31024,-18.866 -9.10029,0 -16.20431,3.6598 -18.53515,5.6598 l 4.77319,9.21 c 1.77508,-1.1097 5.65981,-2.8848 9.65605,-2.8848 4.55015,0 6.65794,1.9963 6.65794,9.6542 l 0,47.4996"
           style="fill:#1f242d;fill-opacity:1;fill-rule:nonzero;stroke:none"
           id="path3380"
           inkscape:connector-curvature="0" /><path
           d="m 147.8147,177.2409 c -5.1041,-3.1078 -12.9832,-5.4386 -21.0835,-5.4386 -20.089,0 -29.07779,12.5408 -29.07779,29.4124 0,20.7526 12.65229,30.851 30.40869,30.851 8.656,0 16.3139,-2.4424 19.7526,-4.6617 l 0,-17.4255 -11.8735,0.5558 -1.3309,7.3271 c -0.1133,0.7769 -0.3345,1.4405 -1.3327,1.775 -1.3327,0.4424 -3.4386,0.777 -5.6598,0.777 -6.6598,0 -12.3196,-4.552 -12.3196,-17.5352 0,-14.4292 6.4368,-18.5351 14.3159,-18.5351 5.5501,0 10.5445,1.7769 13.8735,3.2193 l 4.3271,-10.3215"
           style="fill:#1f242d;fill-opacity:1;fill-rule:nonzero;stroke:none"
           id="path3382"
           inkscape:connector-curvature="0" /><path
           d="m 219.5036,176.2428 c -4.7732,-2.3309 -11.7638,-4.4405 -18.0909,-4.4405 -13.2062,0 -18.2006,5.3289 -18.2006,17.8697 l 0,29.076 c 0,0.6672 0,1.1096 -0.8866,1.1096 l -7.7694,0 0,9.8773 c 9.7676,1.1096 13.6504,5.9943 14.8716,18.0909 l 10.5427,0 0,-15.7601 c 0,-0.7769 0,-1.1097 0.8884,-1.1097 l 15.6467,0 0,-11.0984 -16.5351,0 0,-26.5239 c 0,-6.5483 1.5538,-9.1003 7.5482,-9.1003 3.1059,0 6.3252,0.7769 8.9869,1.7751 l 2.9981,-9.7657"
           style="fill:#1f242d;fill-opacity:1;fill-rule:nonzero;stroke:none"
           id="path3384"
           inkscape:connector-curvature="0" /><path
           d="m 257.0089,208.3168 c -0.1097,9.3234 -3.7732,11.762 -8.3234,11.762 -4.7713,0 -8.656,-2.6635 -9.3233,-11.762 l 17.6467,0 z m 15.9813,-30.8547 c -6.881,-3.329 -14.4274,-5.6598 -22.7508,-5.6598 -21.4199,0 -28.7432,13.3177 -28.7432,30.6317 0,20.0872 12.3177,29.6317 27.5239,29.6317 14.6467,0 24.4143,-7.6579 24.4143,-26.8566 0,-1.3327 -0.1115,-5.2175 -0.2231,-7.4368 l -33.9588,0 c 0.5558,-7.8791 3.9944,-13.0947 13.0966,-13.0947 4.3271,0 8.9887,0.9982 16.5351,3.7714 l 4.106,-10.9869"
           style="fill:#1f242d;fill-opacity:1;fill-rule:nonzero;stroke:none"
           id="path3386"
           inkscape:connector-curvature="0" /><path
           d="m 329.5845,177.2409 c -5.1041,-3.1078 -12.9832,-5.4386 -21.0835,-5.4386 -20.089,0 -29.0778,12.5408 -29.0778,29.4124 0,20.7526 12.6523,30.851 30.4068,30.851 8.6579,0 16.3158,-2.4424 19.7545,-4.6617 l 0,-17.4255 -11.8736,0.5558 -1.3308,7.3271 c -0.1134,0.7769 -0.3346,1.4405 -1.3327,1.775 -1.3327,0.4424 -3.4405,0.777 -5.6598,0.777 -6.6598,0 -12.3196,-4.552 -12.3196,-17.5352 0,-14.4292 6.4368,-18.5351 14.3159,-18.5351 5.5501,0 10.5445,1.7769 13.8735,3.2193 l 4.3271,-10.3215"
           style="fill:#1f242d;fill-opacity:1;fill-rule:nonzero;stroke:none"
           id="path3388"
           inkscape:connector-curvature="0" /><path
           d="m 376.3052,173.135 0,36.18 c 0,3.3289 -0.3345,9.433 -5.8828,9.433 -4.1059,0 -8.7676,-2.1097 -11.5427,-4.1078 l 0,-29.7414 c 0,-1.7751 0.1134,-1.9981 1.777,-2.2193 l 5.3252,-0.7769 0,-8.7676 -30.628,0 0,8.7676 4.9925,0.7769 c 1.5539,0.2212 1.7751,0.5558 1.7751,2.2193 l 0,58.598 c 0,1.2212 -0.3308,1.9981 -1.4424,2.3309 l -6.1021,2.1077 1.2193,8.9888 22.8622,0 0,-31.4068 0.5558,-0.1115 c 4.9925,4.1078 10.7657,6.6598 17.7563,6.6598 11.7639,0 16.0928,-6.4368 16.0928,-17.9794 l 0,-29.1875 c 0,-1.7751 0.1097,-1.9981 1.7751,-2.2193 l 5.5483,-0.7769 0,-8.7676 -24.0816,0"
           style="fill:#1f242d;fill-opacity:1;fill-rule:nonzero;stroke:none"
           id="path3390"
           inkscape:connector-curvature="0" /><path
           d="m 445.5518,173.135 0,35.8454 c 0,5.3289 -0.3345,9.7676 -5.8828,9.7676 -4.1059,0 -9.2118,-2.3309 -11.5427,-4.1078 l 0,-29.7414 c 0,-1.7751 0.1134,-1.9981 1.777,-2.2193 l 5.3252,-0.7769 0,-8.7676 -30.628,0 0,8.8791 4.9925,0.6654 c 1.5539,0.2212 1.7751,0.5558 1.7751,2.2193 l 0,32.628 c 0,1.2212 -0.3308,1.9981 -1.4424,2.3308 l -5.9925,2.1097 1.3309,8.9887 19.4217,0 0.8885,-5.7713 0.4442,-0.223 c 5.5502,4.1077 11.9851,7.104 19.5333,7.104 12.0966,0 16.7582,-6.6598 16.7582,-18.866 l 0,-28.3009 c 0,-1.7751 0.1097,-1.9981 1.7751,-2.2193 l 5.5483,-0.7769 0,-8.7676 -24.0816,0"
           style="fill:#1f242d;fill-opacity:1;fill-rule:nonzero;stroke:none"
           id="path3392"
           inkscape:connector-curvature="0" /><path
           d="m 514.9062,202.3225 c 0,13.0946 -3.9944,17.7563 -11.2099,17.7563 -7.3234,0 -12.2062,-4.5483 -12.2062,-17.866 0,-13.4293 4.3289,-18.7563 11.7638,-18.7563 7.2137,0 11.6523,4.9925 11.6523,18.866 z m -40.9513,-0.6655 c 0,18.4218 9.6561,30.4087 29.9644,30.4087 20.5315,0 28.5221,-12.2081 28.5221,-29.1875 0,-18.866 -9.5445,-31.0759 -29.9644,-31.0759 -20.3103,0 -28.5221,12.4311 -28.5221,29.8547"
           style="fill:#1f242d;fill-opacity:1;fill-rule:nonzero;stroke:none"
           id="path3394"
           inkscape:connector-curvature="0" /><path
           d="m 537.0993,173.135 0,8.7676 5.5483,0.7769 c 1.5539,0.2212 1.7751,0.5558 1.7751,2.2193 l 0,58.598 c 0,1.2212 -0.3309,1.9981 -1.4424,2.3309 l -6.1021,2.1077 1.2193,8.9888 23.0834,0 0,-72.0254 c 0,-1.7751 0.1134,-1.9981 1.777,-2.2193 l 5.4386,-0.7769 0,-8.7676 -31.2972,0"
           style="fill:#1f242d;fill-opacity:1;fill-rule:nonzero;stroke:none"
           id="path3396"
           inkscape:connector-curvature="0" /><path
           d="m 613.7827,202.3225 c 0,13.0946 -3.9963,17.7563 -11.21,17.7563 -7.3252,0 -12.208,-4.5483 -12.208,-17.866 0,-13.4293 4.3289,-18.7563 11.7638,-18.7563 7.2137,0 11.6542,4.9925 11.6542,18.866 z m -40.9513,-0.6655 c 0,18.4218 9.6542,30.4087 29.9644,30.4087 20.5314,0 28.5202,-12.2081 28.5202,-29.1875 0,-18.866 -9.5427,-31.0759 -29.9644,-31.0759 -20.3084,0 -28.5202,12.4311 -28.5202,29.8547"
           style="fill:#1f242d;fill-opacity:1;fill-rule:nonzero;stroke:none"
           id="path3398"
           inkscape:connector-curvature="0" /><path
           d="m 664.8287,221.0788 c -6.1059,0 -10.6542,-2.9963 -10.6542,-10.2099 0,-5.4387 2.9963,-9.2119 10.3215,-9.2119 6.2155,0 10.4311,3.6636 10.4311,9.433 0,6.5502 -3.7732,9.9888 -10.0984,9.9888 z m -12.2081,-50.9401 c -1.4423,-1.775 -2.8847,-3.6616 -2.8847,-5.881 0,-4.4404 5.6579,-5.7731 13.4274,-5.7731 6.4367,0 15.2043,0.4461 15.2043,6.4386 0,3.5501 -4.2174,3.7713 -9.5445,4.1059 l -16.2025,1.1096 z m 32.8492,50.6074 c 1.9981,-2.5539 4.1059,-6.1059 4.1059,-11.2099 0,-12.3178 -9.6542,-19.5333 -23.6373,-19.5333 -3.5521,0 -6.7695,0.4461 -8.7676,1 l -3.6617,-5.8829 10.8754,-0.6654 c 19.1987,-1.2193 30.5183,-1.7751 30.5183,-16.5352 0,-12.7638 -11.2081,-19.9775 -30.5183,-19.9775 -20.0872,0 -27.7451,5.1078 -27.7451,13.8735 0,4.9944 2.2193,7.6561 6.104,11.3196 -3.6635,1.5539 -4.8829,4.3271 -4.8829,7.3252 0,2.4405 1.2194,4.6598 3.2175,6.7695 2,2.1096 4.2174,4.2174 6.881,6.6579 -5.4368,2.6654 -9.5427,8.4349 -9.5427,16.6467 0,12.7638 8.433,21.5314 25.4143,21.5314 4.7713,0 7.6579,-0.4442 10.2099,-1.1097 l 21.6392,0 0,-9.433 -10.2099,-0.7769"
           style="fill:#1f242d;fill-opacity:1;fill-rule:nonzero;stroke:none"
           id="path3400"
           inkscape:connector-curvature="0" /><path
           d="m 713.6535,239.8351 c -6.3252,0 -9.9887,3.6617 -9.9887,9.9869 0,6.3253 3.6635,9.7658 9.9887,9.7658 6.4368,0 10.1003,-3.4405 10.1003,-9.7658 0,-6.3252 -3.6635,-9.9869 -10.1003,-9.9869 z m -14.3158,-66.7001 0,8.7676 5.6598,0.7769 c 1.5539,0.2212 1.7751,0.5558 1.7751,2.2193 l 0,32.628 c 0,1.2212 -0.3327,1.9981 -1.4424,2.3308 l -5.9925,2.1097 1.2193,8.9887 22.9738,0 0,-46.0572 c 0,-1.7751 0.1115,-1.9981 1.7769,-2.2193 l 5.6598,-0.7769 0,-8.7676 -31.6298,0"
           style="fill:#1f242d;fill-opacity:1;fill-rule:nonzero;stroke:none"
           id="path3402"
           inkscape:connector-curvature="0" /><path
           d="m 770.6939,208.3168 c -0.1115,9.3234 -3.775,11.762 -8.3252,11.762 -4.7713,0 -8.656,-2.6635 -9.3214,-11.762 l 17.6466,0 z m 15.9795,-30.8547 c -6.881,-3.329 -14.4256,-5.6598 -22.7508,-5.6598 -21.418,0 -28.7432,13.3177 -28.7432,30.6317 0,20.0872 12.3177,29.6317 27.5239,29.6317 14.6486,0 24.4161,-7.6579 24.4161,-26.8566 0,-1.3327 -0.1133,-5.2175 -0.223,-7.4368 l -33.9607,0 c 0.5558,-7.8791 3.9944,-13.0947 13.0966,-13.0947 4.3271,0 8.9887,0.9982 16.5351,3.7714 l 4.106,-10.9869"
           style="fill:#1f242d;fill-opacity:1;fill-rule:nonzero;stroke:none"
           id="path3404"
           inkscape:connector-curvature="0" /><path
           d="m 827.2901,213.5324 -1.1115,5.7695 c -0.1097,0.8903 -0.3309,1.3327 -1.1078,1.5539 -1.4442,0.4442 -4.1059,0.8903 -7.104,0.8903 -5.5483,0 -8.6561,-2.1097 -8.6561,-5.6598 0,-4.5539 6.1022,-5.552 12.8735,-7.1059 8.7676,-1.9963 18.6448,-5.104 18.6448,-18.0872 0,-13.5408 -10.9869,-19.0909 -25.0816,-19.0909 -10.1002,0 -19.9756,2.6654 -21.9737,3.9962 l 0,16.0928 11.8735,-0.8884 1.1115,-6.3253 c 0.1115,-1 0.3327,-1.4423 1.3308,-1.6635 1.3327,-0.4461 4.329,-1.1115 8.5464,-1.1115 5.881,0 9.2118,1.6635 9.2118,5.7694 0,4.4405 -4.4405,5.7732 -10.1003,6.7714 -9.3233,1.6654 -21.5295,3.6635 -21.5295,18.2005 0,13.762 11.7638,19.4218 24.5258,19.4218 8.7676,0 17.314,-1.9981 20.4218,-3.2193 l 0,-16.0909 -11.8754,0.7769"
           style="fill:#1f242d;fill-opacity:1;fill-rule:nonzero;stroke:none"
           id="path3406"
           inkscape:connector-curvature="0" /><path
           d="m 179.8869,111.4571 14.7192,8.5798 0.9238,-1.552 -13.4981,-7.8029 13.5724,-7.8419 -0.9238,-1.5539 -14.7935,8.6189 0,1.552"
           style="fill:#1f242d;fill-opacity:1;fill-rule:nonzero;stroke:none"
           id="path3408"
           inkscape:connector-curvature="0" /><path
           d="m 211.8067,103.617 c 1.4052,-0.2602 2.8475,-0.3699 4.1431,-0.3699 3.8828,0 4.8085,1.6283 4.8085,4.3271 l 0,7.249 c 0,2.1431 -0.9628,3.1431 -3.329,3.1431 -2.1821,0 -3.92,-0.5929 -5.6226,-1.552 l 0,-12.7973 z m 11.0947,4.0316 c 0,-4.0316 -1.7751,-6.3624 -7.2119,-6.3624 -1.552,0 -4.3624,0.2602 -6.0278,0.6654 l 0,25.076 2.145,0.2955 0,-8.656 c 1.4795,0.7769 3.4776,1.3698 5.9181,1.3698 3.6245,0 5.1766,-2.0706 5.1766,-5.2508 l 0,-7.1375"
           style="fill:#1f242d;fill-opacity:1;fill-rule:nonzero;stroke:none"
           id="path3410"
           inkscape:connector-curvature="0" /><path
           d="m 236.2935,117.9292 c -1.8848,-0.8142 -3.9554,-2.1822 -5.6952,-3.329 l 0,-12.9441 -2.1449,0 0,18.0128 1.9237,0 0.1097,-2.7379 c 1.9238,1.2584 3.8476,2.4777 5.5483,3.1059 l 0.2584,-2.1077"
           style="fill:#1f242d;fill-opacity:1;fill-rule:nonzero;stroke:none"
           id="path3412"
           inkscape:connector-curvature="0" /><path
           d="m 239.9942,119.6689 2.1449,0 0,-18.0128 -2.1449,0 0,18.0128 z m 0,7.3587 2.1449,0 0,-3.9572 -2.1449,0 0,3.9572 z"
           style="fill:#1f242d;fill-opacity:1;fill-rule:nonzero;stroke:none"
           id="path3414"
           inkscape:connector-curvature="0" /><path
           d="m 259.4475,101.6561 0,14.5723 c 0,1.3309 -0.7007,1.8123 -1.9591,1.8123 -1.4795,0 -4.6598,-0.8885 -6.9163,-2.0725 l 0,-14.3121 -2.1449,0 0,18.0128 1.8866,0 0.1487,-1.6282 c 1.9219,0.9256 5.1393,1.9962 7.3215,1.9962 2.8122,0 3.8103,-1.591 3.8103,-4.0687 l 0,-14.3121 -2.1468,0"
           style="fill:#1f242d;fill-opacity:1;fill-rule:nonzero;stroke:none"
           id="path3416"
           inkscape:connector-curvature="0" /><path
           d="m 273.8768,118.1894 c -3.5874,0 -4.8457,-1.1115 -4.8457,-4.4033 l 0,-0.3699 c 0,-3.4015 1.5539,-4.3996 4.8457,-4.3996 3.2918,0 4.8438,1.145 4.8438,4.3996 l 0,0.3699 c 0,3.2546 -1.2565,4.4033 -4.8438,4.4033 z m 0,-11.0222 c -0.9257,0 -1.6654,0.0743 -2.4052,0.2212 -0.9982,-0.8123 -1.4052,-1.5149 -1.4052,-2.3662 0,-0.7026 0.407,-1.184 1.6282,-1.2955 2.2547,-0.184 2.7732,-0.2212 5.1766,-0.4052 3.2918,-0.2602 4.4758,-1.7751 4.4758,-4.2918 0,-3.73417 -1.8495,-5.0297 -7.6933,-5.0297 -1.6635,0 -4.4014,0.33457 -6.3233,0.88847 l 0.3327,1.70259 c 1.775,-0.40892 4.1412,-0.74163 6.065,-0.74163 4.8828,0 5.5111,0.99813 5.5111,3.06874 0,1.77693 -0.7398,2.47763 -2.8848,2.62823 -2.2936,0.1468 -2.4776,0.1468 -4.8828,0.3309 -2.6617,0.2211 -3.5502,1.591 -3.5502,3.1802 0,0.9628 0.4071,2.0725 1.7026,3.0335 -1.8141,1.0371 -2.6635,2.8475 -2.6635,5.3995 l 0,0.2212 c 0,4.0706 1.8122,6.3252 6.9163,6.3252 1.2193,0 2.1821,-0.1115 3.0315,-0.368 l 4.9572,0 0,-1.5539 -2.2564,-0.1858 c 0.8141,-1.0372 1.1821,-2.4777 1.1821,-4.2175 l 0,-0.2212 c 0,-4.0668 -2.1803,-6.3233 -6.9144,-6.3233"
           style="fill:#1f242d;fill-opacity:1;fill-rule:nonzero;stroke:none"
           id="path3418"
           inkscape:connector-curvature="0" /><path
           d="m 286.6759,119.6689 2.145,0 0,-18.0128 -2.145,0 0,18.0128 z m 0,7.3587 2.145,0 0,-3.9572 -2.145,0 0,3.9572 z"
           style="fill:#1f242d;fill-opacity:1;fill-rule:nonzero;stroke:none"
           id="path3420"
           inkscape:connector-curvature="0" /><path
           d="m 306.1293,101.6561 0,14.5723 c 0,1.3309 -0.7026,1.8123 -1.9591,1.8123 -1.4796,0 -4.6598,-0.8885 -6.9163,-2.0725 l 0,-14.3121 -2.145,0 0,18.0128 1.8866,0 0.1469,-1.6282 c 1.9237,0.9256 5.1412,1.9962 7.3233,1.9962 2.8104,0 3.8104,-1.591 3.8104,-4.0687 l 0,-14.3121 -2.1468,0"
           style="fill:#1f242d;fill-opacity:1;fill-rule:nonzero;stroke:none"
           id="path3422"
           inkscape:connector-curvature="0" /><path
           d="m 320.5566,118.1894 c -3.5873,0 -4.8438,-1.1115 -4.8438,-4.4033 l 0,-0.3699 c 0,-3.4015 1.5521,-4.3996 4.8438,-4.3996 3.2918,0 4.8457,1.145 4.8457,4.3996 l 0,0.3699 c 0,3.2546 -1.2565,4.4033 -4.8457,4.4033 z m 0,-11.0222 c -0.9237,0 -1.6635,0.0743 -2.4033,0.2212 -0.9981,-0.8123 -1.4052,-1.5149 -1.4052,-2.3662 0,-0.7026 0.4071,-1.184 1.6283,-1.2955 2.2546,-0.184 2.7732,-0.2212 5.1765,-0.4052 3.2918,-0.2602 4.4758,-1.7751 4.4758,-4.2918 0,-3.73417 -1.8494,-5.0297 -7.6932,-5.0297 -1.6636,0 -4.4015,0.33457 -6.3253,0.88847 l 0.3346,1.70259 c 1.7751,-0.40892 4.1412,-0.74163 6.065,-0.74163 4.881,0 5.5111,0.99813 5.5111,3.06874 0,1.77693 -0.7398,2.47763 -2.8866,2.62823 -2.2918,0.1468 -2.4777,0.1468 -4.881,0.3309 -2.6635,0.2211 -3.5501,1.591 -3.5501,3.1802 0,0.9628 0.407,2.0725 1.7007,3.0335 -1.8123,1.0371 -2.6617,2.8475 -2.6617,5.3995 l 0,0.2212 c 0,4.0706 1.8104,6.3252 6.9144,6.3252 1.2212,0 2.1822,-0.1115 3.0335,-0.368 l 4.9553,0 0,-1.5539 -2.2565,-0.1858 c 0.8142,-1.0372 1.184,-2.4777 1.184,-4.2175 l 0,-0.2212 c 0,-4.0668 -2.1821,-6.3233 -6.9163,-6.3233"
           style="fill:#1f242d;fill-opacity:1;fill-rule:nonzero;stroke:none"
           id="path3424"
           inkscape:connector-curvature="0" /><path
           d="m 348.2999,101.6561 -2.6635,-7.28621 -2.1078,0 2.6988,7.28621 -1.2193,0 -6.1022,18.0128 2.1803,0 5.5483,-16.4961 5.5854,16.4961 2.1803,0 -6.1003,-18.0128"
           style="fill:#1f242d;fill-opacity:1;fill-rule:nonzero;stroke:none"
           id="path3426"
           inkscape:connector-curvature="0" /><path
           d="m 368.8276,113.5649 c 0,3.0334 -1.4795,4.5501 -4.8438,4.5501 -3.3662,0 -4.8457,-1.5167 -4.8457,-4.5501 l 0,-5.8067 c 0,-3.0334 1.4795,-4.5482 4.8457,-4.5482 3.3643,0 4.8438,1.5148 4.8438,4.5482 l 0,5.8067 z m -4.8438,-12.2787 c -5.0669,0 -6.9907,2.8475 -6.9907,6.5464 l 0,5.6579 c 0,3.7007 1.9238,6.5464 6.9907,6.5464 5.065,0 6.9888,-2.8457 6.9888,-6.5464 l 0,-5.6579 c 0,-3.6989 -1.9238,-6.5464 -6.9888,-6.5464"
           style="fill:#1f242d;fill-opacity:1;fill-rule:nonzero;stroke:none"
           id="path3428"
           inkscape:connector-curvature="0" /><path
           d="m 378.2978,119.6689 0,-14.5723 c 0,-1.3327 0.7026,-1.8142 1.9609,-1.8142 1.4777,0 4.6598,0.8904 6.9145,2.0725 l 0,14.314 2.1468,0 0,-18.0128 -1.8866,0 -0.1487,1.6263 c -1.9219,-0.9237 -5.1412,-1.9962 -7.3234,-1.9962 -2.8104,0 -3.8085,1.5892 -3.8085,4.0687 l 0,14.314 2.145,0"
           style="fill:#1f242d;fill-opacity:1;fill-rule:nonzero;stroke:none"
           id="path3430"
           inkscape:connector-curvature="0" /><path
           d="m 403.45,117.9292 c -1.8866,-0.8142 -3.9572,-2.1822 -5.6933,-3.329 l 0,-12.9441 -2.1468,0 0,18.0128 1.9238,0 0.1115,-2.7379 c 1.9219,1.2584 3.8438,2.4777 5.5464,3.1059 l 0.2584,-2.1077"
           style="fill:#1f242d;fill-opacity:1;fill-rule:nonzero;stroke:none"
           id="path3432"
           inkscape:connector-curvature="0" /><path
           d="m 420.0223,101.2862 c -1.8104,0 -3.9572,0.3699 -5.2899,0.9256 l 0.3717,1.7379 c 1.5539,-0.4814 3.4387,-0.7397 4.7695,-0.7397 3.329,0 3.9944,0.6282 3.9944,2.92 0,2.5911 -0.0743,2.8494 -4.1803,3.8104 -4.5092,1.0725 -4.881,2.1821 -4.881,5.4739 0,2.9963 1.4443,4.6226 5.8829,4.6226 1.6635,0 3.697,-0.2211 5.1022,-0.6282 l -0.2231,-1.8123 c -1.4405,0.2956 -3.5501,0.5186 -5.0297,0.5186 -3.1431,0 -3.5854,-0.8141 -3.5854,-2.775 0,-2.4777 0.1468,-2.7361 3.4758,-3.5874 5.2899,-1.3308 5.5854,-2.1821 5.5854,-5.5482 0,-3.2547 -1.184,-4.9182 -5.9925,-4.9182"
           style="fill:#1f242d;fill-opacity:1;fill-rule:nonzero;stroke:none"
           id="path3434"
           inkscape:connector-curvature="0" /><path
           d="m 438.1857,101.6561 -2.6635,-7.28621 -2.1078,0 2.6988,7.28621 -1.2211,0 -6.1003,18.0128 2.1821,0 5.5464,-16.4961 5.5855,16.4961 2.1821,0 -6.1022,-18.0128"
           style="fill:#1f242d;fill-opacity:1;fill-rule:nonzero;stroke:none"
           id="path3436"
           inkscape:connector-curvature="0" /><path
           d="m 452.5369,101.2862 c -1.8123,0 -3.9572,0.3699 -5.2899,0.9256 l 0.3699,1.7379 c 1.5539,-0.4814 3.4423,-0.7397 4.7713,-0.7397 3.329,0 3.9962,0.6282 3.9962,2.92 0,2.5911 -0.0762,2.8494 -4.1784,3.8104 -4.5129,1.0725 -4.8828,2.1821 -4.8828,5.4739 0,2.9963 1.4424,4.6226 5.881,4.6226 1.6635,0 3.6951,-0.2211 5.1003,-0.6282 l -0.2212,-1.8123 c -1.4405,0.2956 -3.5501,0.5186 -5.0278,0.5186 -3.1431,0 -3.5873,-0.8141 -3.5873,-2.775 0,-2.4777 0.1468,-2.7361 3.4758,-3.5874 5.288,-1.3308 5.5854,-2.1821 5.5854,-5.5482 0,-3.2547 -1.1821,-4.9182 -5.9925,-4.9182"
           style="fill:#1f242d;fill-opacity:1;fill-rule:nonzero;stroke:none"
           id="path3438"
           inkscape:connector-curvature="0" /><path
           d="m 473.1743,101.9888 c -1.0335,-0.4071 -2.4759,-0.7026 -3.7714,-0.7026 -2.8457,0 -4.065,1.0371 -4.065,3.8847 l 0,12.6467 -3.4795,0 0,1.8513 3.4795,0 0,4.2528 2.1412,0.2955 0,-4.5483 5.5111,0 -0.2211,-1.8513 -5.29,0 0,-12.4255 c 0,-1.5911 0.2249,-2.2565 2.0725,-2.2565 0.9981,0 2.145,0.1859 3.2175,0.5167 l 0.4052,-1.6635"
           style="fill:#1f242d;fill-opacity:1;fill-rule:nonzero;stroke:none"
           id="path3440"
           inkscape:connector-curvature="0" /><path
           d="m 478.7616,111.9366 9.0259,0 0,1.6283 c 0,3.0334 -1.0725,4.6245 -4.4367,4.6245 -3.3662,0 -4.5892,-1.5911 -4.5892,-4.6245 l 0,-1.6283 z m 4.6988,-8.7638 c 1.8513,0 3.9201,0.3699 5.6951,0.8513 l 0.3699,-1.7398 c -1.6617,-0.5911 -4.0297,-0.9981 -6.2155,-0.9981 -5.0632,0 -6.6896,2.6264 -6.6896,6.5464 l 0,5.6579 c 0,3.7007 1.6617,6.5464 6.7305,6.5464 5.065,0 6.5445,-2.8457 6.5445,-6.5464 l 0,-3.4758 -11.1337,0 0,-2.2565 c 0,-3.2174 1.1115,-4.5854 4.6988,-4.5854"
           style="fill:#1f242d;fill-opacity:1;fill-rule:nonzero;stroke:none"
           id="path3442"
           inkscape:connector-curvature="0" /><path
           d="m 517.3021,101.6561 0,14.5723 c 0,1.3309 -0.7007,1.8123 -1.9572,1.8123 -1.7026,0 -4.6617,-0.8885 -6.92,-2.0725 l 0,-14.3121 -2.1413,0 0,14.5723 c 0,1.3309 -0.7044,1.8123 -1.9609,1.8123 -1.4814,0 -4.6617,-0.8885 -6.9163,-2.0725 l 0,-14.3121 -2.145,0 0,18.0128 1.8848,0 0.1487,-1.6282 c 1.9237,0.9256 5.1412,1.9962 7.3215,1.9962 1.9237,0 2.9962,-0.7397 3.4776,-1.9962 2.0706,0.9609 5.3624,1.9962 7.5446,1.9962 2.8104,0 3.8085,-1.591 3.8085,-4.0687 l 0,-14.3121 -2.145,0"
           style="fill:#1f242d;fill-opacity:1;fill-rule:nonzero;stroke:none"
           id="path3444"
           inkscape:connector-curvature="0" /><path
           d="m 542.9748,101.9888 c -1.0353,-0.4071 -2.4759,-0.7026 -3.7714,-0.7026 -2.8457,0 -4.0669,1.0371 -4.0669,3.8847 l 0,12.6467 -3.4776,0 0,1.8513 3.4776,0 0,4.2528 2.1431,0.2955 0,-4.5483 5.5093,0 -0.2212,-1.8513 -5.2881,0 0,-12.4255 c 0,-1.5911 0.2249,-2.2565 2.0725,-2.2565 0.9981,0 2.145,0.1859 3.2156,0.5167 l 0.4071,-1.6635"
           style="fill:#1f242d;fill-opacity:1;fill-rule:nonzero;stroke:none"
           id="path3446"
           inkscape:connector-curvature="0" /><path
           d="m 558.2516,113.5649 c 0,3.0334 -1.4777,4.5501 -4.8476,4.5501 -3.3642,0 -4.8419,-1.5167 -4.8419,-4.5501 l 0,-5.8067 c 0,-3.0334 1.4777,-4.5482 4.8419,-4.5482 3.3699,0 4.8476,1.5148 4.8476,4.5482 l 0,5.8067 z m -4.8476,-12.2787 c -5.0631,0 -6.9869,2.8475 -6.9869,6.5464 l 0,5.6579 c 0,3.7007 1.9238,6.5464 6.9869,6.5464 5.0688,0 6.9925,-2.8457 6.9925,-6.5464 l 0,-5.6579 c 0,-3.6989 -1.9237,-6.5464 -6.9925,-6.5464"
           style="fill:#1f242d;fill-opacity:1;fill-rule:nonzero;stroke:none"
           id="path3448"
           inkscape:connector-curvature="0" /><path
           d="m 573.902,101.6561 0,25.3715 2.145,0.2955 0,-25.667 -2.145,0"
           style="fill:#1f242d;fill-opacity:1;fill-rule:nonzero;stroke:none"
           id="path3450"
           inkscape:connector-curvature="0" /><path
           d="m 582.335,119.6689 2.145,0 0,-18.0128 -2.145,0 0,18.0128 z m 0,7.3587 2.145,0 0,-3.9572 -2.145,0 0,3.9572 z"
           style="fill:#1f242d;fill-opacity:1;fill-rule:nonzero;stroke:none"
           id="path3452"
           inkscape:connector-curvature="0" /><path
           d="m 600.3441,125.5852 c -1.1821,0.2212 -2.2546,0.3327 -3.2527,0.3327 -2.0353,0 -2.6636,-0.7769 -2.6636,-2.7379 l 0,-3.5111 5.5465,0 -0.2212,-1.8513 -5.3253,0 0,-16.1615 -2.1468,0 0,16.1615 -3.3643,0 0,1.8513 3.3643,0 0,3.7714 c 0,2.959 1.816,4.3271 4.6617,4.3271 1.0353,0 2.6245,-0.1859 3.6988,-0.5168 l -0.2974,-1.6654"
           style="fill:#1f242d;fill-opacity:1;fill-rule:nonzero;stroke:none"
           id="path3454"
           inkscape:connector-curvature="0" /><path
           d="m 604.675,111.9366 9.0259,0 0,1.6283 c 0,3.0334 -1.0743,4.6245 -4.4405,4.6245 -3.3643,0 -4.5854,-1.5911 -4.5854,-4.6245 l 0,-1.6283 z m 4.6988,-8.7638 c 1.8476,0 3.92,0.3699 5.6951,0.8513 l 0.3662,-1.7398 c -1.6617,-0.5911 -4.0297,-0.9981 -6.21,-0.9981 -5.0687,0 -6.6951,2.6264 -6.6951,6.5464 l 0,5.6579 c 0,3.7007 1.6635,6.5464 6.7304,6.5464 5.0687,0 6.5464,-2.8457 6.5464,-6.5464 l 0,-3.4758 -11.1318,0 0,-2.2565 c 0,-3.2174 1.1115,-4.5854 4.6988,-4.5854"
           style="fill:#1f242d;fill-opacity:1;fill-rule:nonzero;stroke:none"
           id="path3456"
           inkscape:connector-curvature="0" /><path
           d="m 630.7156,97.32897 -2.1449,0 9.0965,29.32873 2.1822,0 -9.1338,-29.32873"
           style="fill:#1f242d;fill-opacity:1;fill-rule:nonzero;stroke:none"
           id="path3458"
           inkscape:connector-curvature="0" /><path
           d="m 660.9347,109.9051 -14.7936,-8.6189 -0.9256,1.5539 13.5742,7.8419 -13.498,7.8029 0.9219,1.552 14.7211,-8.5798 0,-1.552"
           style="fill:#1f242d;fill-opacity:1;fill-rule:nonzero;stroke:none"
           id="path3460"
           inkscape:connector-curvature="0" /></g></g><g
       id="g3462"><g
         id="g3464"
         clip-path="url(#clipPath3466)"><g
           id="g3470"
           clip-path="url(#clipPath3472)"><g
             id="g3476"><path
               d="m 0,94 842,0 0,407 L 0,501 0,94 Z"
               style="fill:url(#linearGradient3478);stroke:none"
               id="path3484"
               inkscape:connector-curvature="0" /></g></g></g></g></g></svg>