<?xml version="1.0" encoding="UTF-8" standalone="no"?>
<svg
   xmlns:dc="http://purl.org/dc/elements/1.1/"
   xmlns:cc="http://creativecommons.org/ns#"
   xmlns:rdf="http://www.w3.org/1999/02/22-rdf-syntax-ns#"
   xmlns:svg="http://www.w3.org/2000/svg"
   xmlns="http://www.w3.org/2000/svg"
   version="1.1"
   id="svg2"
   viewBox="0 0 742.42383 137.42388"
   height="38.784073mm"
   width="209.5285mm">
  <defs
     id="defs4">
    <clipPath
       clipPathUnits="userSpaceOnUse"
       id="clipPath4190">
      <path
         d="m 1,366 594,0 0,110 -594,0 0,-110 z"
         id="path4192" />
    </clipPath>
    <clipPath
       clipPathUnits="userSpaceOnUse"
       id="clipPath4280">
      <path
         d="m 1.060922,476.4619 594.050678,0 0,-110.401 -594.050678,0 0,110.401 z"
         id="path4282" />
    </clipPath>
    <clipPath
       clipPathUnits="userSpaceOnUse"
       id="clipPath4286">
      <path
         d="m 1,366 594,0 0,110 -594,0 0,-110 z"
         id="path4288" />
    </clipPath>
    <clipPath
       clipPathUnits="userSpaceOnUse"
       id="clipPath4298">
      <path
         d="m 56.23143,365.999 0,0 C 25.72804,365.999 1,390.727 1,421.2304 1,390.727 25.72804,365.999 56.23143,365.999 c 30.5034,0 55.23147,24.728 55.23147,55.2314 0,-30.5034 -24.72807,-55.2314 -55.23147,-55.2314 m 15.81827,21.621 -6.23227,0 -10.07946,23.5492 10.07946,-23.54 6.22821,0 0.0041,-0.009 m -26.26326,0 -6.23227,0 0.0041,0.009 6.22821,0 9.95153,23.54 -9.95153,-23.5492 m 6.30538,53.4586 0,0 3.91116,6.1044 0.0091,0 -3.9203,-6.1044 m 9.95152,9.6226 3.9071,6.1612 0.0041,-0.002 -3.91117,-6.1592 m -6.03122,0 -0.0091,0 -3.91116,6.1592 0.0041,0.002 3.91624,-6.1612"
         id="path4300" />
    </clipPath>
    <clipPath
       clipPathUnits="userSpaceOnUse"
       id="clipPath4304">
      <path
         d="m 1.060922,476.4619 110.401978,0 0,-110.401 -110.401978,0 0,110.401 z"
         id="path4306" />
    </clipPath>
    <clipPath
       clipPathUnits="userSpaceOnUse"
       id="clipPath4310">
      <path
         d="m 1,366 594,0 0,110 -594,0 0,-110 z"
         id="path4312" />
    </clipPath>
    <linearGradient
       x1="0"
       y1="0"
       x2="1"
       y2="0"
       gradientUnits="userSpaceOnUse"
       gradientTransform="matrix(0,110.4619,110.4619,0,56.23194,366)"
       spreadMethod="pad"
       id="linearGradient4316">
      <stop
         style="stop-opacity:1;stop-color:#1161a5"
         offset="0"
         id="stop4318" />
      <stop
         style="stop-opacity:1;stop-color:#ffffff"
         offset="1"
         id="stop4320" />
    </linearGradient>
    <clipPath
       clipPathUnits="userSpaceOnUse"
       id="clipPath4328">
      <path
         d="M 56.23143,365.999 C 25.72804,365.999 1,390.727 1,421.2304 c 0,30.5034 24.72804,55.2315 55.23143,55.2315 30.5034,0 55.23147,-24.7281 55.23147,-55.2315 0,-30.5034 -24.72807,-55.2314 -55.23147,-55.2314 m -0.49346,45.1702 10.07946,-23.5492 6.23227,0 -0.0041,0.009 0.0041,0 -13.25956,29.5804 -6.04037,0 -13.1956,-29.5804 0.0041,0 -0.0041,-0.009 6.23227,0 9.95153,23.5492 m -23.4761,4.889 0,0 46.88823,15.7177 0,6.1044 -46.88823,-15.7178 0,-6.1043 m 26.72931,29.3337 3.31717,-6.4333 3.64616,2.12 -3.91117,6.1044 7.29231,-0.329 0,4.1762 -7.29231,-0.329 3.91117,6.1592 -0.0041,0.002 0.0041,0.007 -3.64616,2.0561 -3.31717,-6.4333 -3.31718,6.4333 -3.58218,-2.0561 0.0041,-0.007 -0.0041,-0.002 3.91116,-6.1592 -7.29231,0.329 0,-4.1762 7.29231,0.329 -3.91116,-6.1044 3.58218,-2.12 3.31718,6.4333"
         id="path4330" />
    </clipPath>
    <clipPath
       clipPathUnits="userSpaceOnUse"
       id="clipPath4334">
      <path
         d="m 1.060922,476.4619 110.401978,0 0,-110.401 -110.401978,0 0,110.401 z"
         id="path4336" />
    </clipPath>
    <clipPath
       clipPathUnits="userSpaceOnUse"
       id="clipPath4340">
      <path
         d="m 1,366 594,0 0,110 -594,0 0,-110 z"
         id="path4342" />
    </clipPath>
    <linearGradient
       x1="0"
       y1="0"
       x2="1"
       y2="0"
       gradientUnits="userSpaceOnUse"
       gradientTransform="matrix(0,110.4619,110.4619,0,56.23194,366)"
       spreadMethod="pad"
       id="linearGradient4346">
      <stop
         style="stop-opacity:1;stop-color:#1161a5"
         offset="0"
         id="stop4348" />
      <stop
         style="stop-opacity:1;stop-color:#51bbed"
         offset="1"
         id="stop4350" />
    </linearGradient>
  </defs>
  <metadata
     id="metadata7">
    <rdf:RDF>
      <cc:Work
         rdf:about="">
        <dc:format>image/svg+xml</dc:format>
        <dc:type
           rdf:resource="http://purl.org/dc/dcmitype/StillImage" />
        <dc:title></dc:title>
      </cc:Work>
    </rdf:RDF>
  </metadata>
  <g
     transform="translate(-0.2166454,-146.50741)"
     id="layer1">
    <g
       id="g4182"
       transform="matrix(1.25,0,0,-1.25,-1.1095071,741.50741)">
      <g
         id="g4184" />
      <g
         id="g4186">
        <g
           id="g4188"
           clip-path="url(#clipPath4190)">
          <path
             d="m 158.1643,434.8789 c 0,7.1542 -2.182,9.7007 -6.1226,9.7007 -4.0016,0 -6.6689,-2.4866 -6.6689,-9.7606 0,-7.336 2.3648,-10.246 6.4262,-10.246 3.9406,0 6.3653,2.7272 6.3653,10.3059 z m -22.3704,-0.3635 c 0,10.0642 5.2748,16.6112 16.3686,16.6112 11.2156,0 15.5807,-6.6688 15.5807,-15.9441 0,-10.3059 -5.2139,-16.9748 -16.3686,-16.9748 -11.0948,0 -15.5807,6.7897 -15.5807,16.3077"
             style="fill:#1f242d;fill-opacity:1;fill-rule:nonzero;stroke:none"
             id="path4194" />
          <path
             d="m 178.047,455.3698 c -3.4552,0 -5.5164,2.0013 -5.5164,5.4565 0,3.4553 2.0612,5.3347 5.5164,5.3347 3.5162,0 5.5165,-1.8794 5.5165,-5.3347 0,-3.4552 -2.0003,-5.4565 -5.5165,-5.4565 z m -3.8198,-12.1853 c 0,0.728 -0.1817,1.0915 -0.7879,1.2733 l -3.4552,1.1524 0.728,4.9103 12.6696,0 0,-34.7974 c 0,-7.274 -3.8187,-10.3069 -10.5485,-10.3069 -4.9712,0 -8.8509,2.0013 -10.1242,3.0918 l 2.6075,5.0311 c 0.9696,-0.6042 3.0907,-1.5748 5.2737,-1.5748 2.4856,0 3.637,1.0915 3.637,5.2737 l 0,25.9465"
             style="fill:#1f242d;fill-opacity:1;fill-rule:nonzero;stroke:none"
             id="path4196" />
          <path
             d="m 216.5413,421.1786 c -2.7882,-1.6976 -7.0933,-2.9709 -11.5182,-2.9709 -10.974,0 -15.8843,6.8496 -15.8843,16.066 0,11.3365 6.9115,16.8529 16.6113,16.8529 4.7285,0 8.9118,-1.3342 10.7912,-2.5465 l 0,-9.518 -6.4871,0.3036 -0.727,4.0005 c -0.061,0.4245 -0.1818,0.789 -0.728,0.9707 -0.727,0.2427 -1.8785,0.4244 -3.0908,0.4244 -3.638,0 -6.7298,-2.4855 -6.7298,-9.5788 0,-7.8823 3.5162,-10.1252 7.8203,-10.1252 3.0308,0 5.7601,0.9707 7.5786,1.7586 l 2.3638,-5.6373"
             style="fill:#1f242d;fill-opacity:1;fill-rule:nonzero;stroke:none"
             id="path4198" />
          <path
             d="m 255.7016,420.6334 c -2.6064,-1.2733 -6.4262,-2.4257 -9.8814,-2.4257 -7.2152,0 -9.9424,2.909 -9.9424,9.7606 l 0,15.8833 c 0,0.3635 0,0.6062 -0.4854,0.6062 l -4.2442,0 0,5.3956 c 5.3357,0.6061 7.4568,3.2745 8.1239,9.8814 l 5.7591,0 0,-8.6082 c 0,-0.4244 0,-0.6061 0.4854,-0.6061 l 8.5483,0 0,-6.0627 -9.0337,0 0,-14.4892 c 0,-3.5771 0.8489,-4.9712 4.1234,-4.9712 1.6977,0 3.4553,0.4244 4.9103,0.9697 l 1.6367,-5.3337"
             style="fill:#1f242d;fill-opacity:1;fill-rule:nonzero;stroke:none"
             id="path4200" />
          <path
             d="m 276.1905,438.1534 c -0.0609,5.092 -2.0611,6.4262 -4.5477,6.4262 -2.6065,0 -4.7286,-1.456 -5.0921,-6.4262 l 9.6398,0 z m 8.7291,-16.8539 c -3.7589,-1.8185 -7.8802,-3.0918 -12.428,-3.0918 -11.7,0 -15.7015,7.274 -15.7015,16.7321 0,10.973 6.7288,16.1868 15.0354,16.1868 8.0021,0 13.3378,-4.1832 13.3378,-14.6709 0,-0.728 -0.062,-2.8501 -0.1219,-4.0624 l -18.5516,0 c 0.3036,-4.3041 2.183,-7.1532 7.1542,-7.1532 2.3638,0 4.9103,0.5452 9.0337,2.0601 l 2.2419,-6.0007"
             style="fill:#1f242d;fill-opacity:1;fill-rule:nonzero;stroke:none"
             id="path4202" />
          <path
             d="m 315.8362,421.1786 c -2.7881,-1.6976 -7.0933,-2.9709 -11.5182,-2.9709 -10.974,0 -15.8843,6.8496 -15.8843,16.066 0,11.3365 6.9116,16.8529 16.6113,16.8529 4.7285,0 8.9118,-1.3342 10.7912,-2.5465 l 0,-9.518 -6.4871,0.3036 -0.727,4.0005 c -0.0609,0.4245 -0.1817,0.789 -0.728,0.9707 -0.727,0.2427 -1.8784,0.4244 -3.0908,0.4244 -3.638,0 -6.7298,-2.4855 -6.7298,-9.5788 0,-7.8823 3.5152,-10.1252 7.8203,-10.1252 3.0309,0 5.7602,0.9707 7.5787,1.7586 l 2.3637,-5.6373"
             style="fill:#1f242d;fill-opacity:1;fill-rule:nonzero;stroke:none"
             id="path4204" />
          <path
             d="m 341.3573,418.9357 0,19.7629 c 0,1.8186 -0.1818,5.153 -3.2136,5.153 -2.243,0 -4.7885,-1.1524 -6.3054,-2.2429 l 0,-16.2478 c 0,-0.9697 0.0619,-1.0905 0.9717,-1.2123 l 2.909,-0.4245 0,-4.7884 -16.7321,0 0,4.7884 2.7283,0.4245 c 0.8488,0.1218 0.9696,0.3036 0.9696,1.2123 l 0,32.0102 c 0,0.6661 -0.1817,1.0905 -0.7889,1.2732 l -3.3334,1.1515 0.6671,4.9102 12.4878,0 0,-17.1565 0.3036,-0.0609 c 2.7283,2.2439 5.881,3.638 9.6998,3.638 6.4262,0 8.7909,-3.5162 8.7909,-9.8215 l 0,-15.9442 c 0,-0.9697 0.061,-1.0905 0.9697,-1.2123 l 3.0319,-0.4245 0,-4.7884 -13.156,0"
             style="fill:#1f242d;fill-opacity:1;fill-rule:nonzero;stroke:none"
             id="path4206" />
          <path
             d="m 379.1844,418.9357 0,19.5812 c 0,2.91 -0.1817,5.3347 -3.2136,5.3347 -2.2429,0 -5.0321,-1.2733 -6.3053,-2.2429 l 0,-16.2478 c 0,-0.9697 0.0619,-1.0905 0.9706,-1.2123 l 2.9101,-0.4245 0,-4.7884 -16.7321,0 0,4.8483 2.7282,0.3646 c 0.8489,0.1218 0.9697,0.3036 0.9697,1.2123 l 0,17.8236 c 0,0.6671 -0.1818,1.0915 -0.7889,1.2733 l -3.2725,1.1524 0.727,4.9103 10.6094,0 0.4844,-3.1527 0.2437,-0.1209 c 3.0308,2.243 6.547,3.8797 10.6693,3.8797 6.608,0 9.1545,-3.638 9.1545,-10.3059 l 0,-15.4598 c 0,-0.9697 0.0609,-1.0905 0.9697,-1.2123 l 3.0308,-0.4245 0,-4.7884 -13.155,0"
             style="fill:#1f242d;fill-opacity:1;fill-rule:nonzero;stroke:none"
             id="path4208" />
          <path
             d="m 417.0715,434.8789 c 0,7.1542 -2.183,9.7007 -6.1236,9.7007 -4.0015,0 -6.6689,-2.4866 -6.6689,-9.7606 0,-7.336 2.3648,-10.246 6.4262,-10.246 3.9406,0 6.3663,2.7272 6.3663,10.3059 z m -22.3704,-0.3635 c 0,10.0642 5.2738,16.6112 16.3686,16.6112 11.2157,0 15.5797,-6.6688 15.5797,-15.9441 0,-10.3059 -5.2129,-16.9748 -16.3686,-16.9748 -11.0938,0 -15.5797,6.7897 -15.5797,16.3077"
             style="fill:#1f242d;fill-opacity:1;fill-rule:nonzero;stroke:none"
             id="path4210" />
          <path
             d="m 429.1939,418.9357 0,4.7884 3.0318,0.4245 c 0.8489,0.1218 0.9697,0.3036 0.9697,1.2123 l 0,32.0102 c 0,0.6661 -0.1817,1.0905 -0.7889,1.2732 l -3.3334,1.1515 0.666,4.9102 12.6098,0 0,-39.3451 c 0,-0.9697 0.0619,-1.0905 0.9706,-1.2123 l 2.971,-0.4245 0,-4.7884 -17.0966,0"
             style="fill:#1f242d;fill-opacity:1;fill-rule:nonzero;stroke:none"
             id="path4212" />
          <path
             d="m 471.0835,434.8789 c 0,7.1542 -2.182,9.7007 -6.1236,9.7007 -4.0015,0 -6.6679,-2.4866 -6.6679,-9.7606 0,-7.336 2.3648,-10.246 6.4262,-10.246 3.9396,0 6.3653,2.7272 6.3653,10.3059 z m -22.3704,-0.3635 c 0,10.0642 5.2738,16.6112 16.3686,16.6112 11.2157,0 15.5807,-6.6688 15.5807,-15.9441 0,-10.3059 -5.2139,-16.9748 -16.3686,-16.9748 -11.0948,0 -15.5807,6.7897 -15.5807,16.3077"
             style="fill:#1f242d;fill-opacity:1;fill-rule:nonzero;stroke:none"
             id="path4214" />
          <path
             d="m 498.9683,445.1248 c -3.3344,0 -5.819,-1.6367 -5.819,-5.5773 0,-2.971 1.6357,-5.0321 5.6372,-5.0321 3.3954,0 5.6993,2.0012 5.6993,5.1529 0,3.5771 -2.0622,5.4565 -5.5175,5.4565 z m -6.6679,-27.8258 c -0.7889,-0.9697 -1.5768,-2.0003 -1.5768,-3.2126 0,-2.4247 3.0917,-3.1527 7.3359,-3.1527 3.5152,0 8.3047,0.2416 8.3047,3.5162 0,1.9393 -2.3029,2.0601 -5.2139,2.2429 l -8.8499,0.6062 z m 17.9445,27.6441 c 1.0915,-1.3951 2.2419,-3.3344 2.2419,-6.1236 0,-6.7288 -5.2738,-10.6704 -12.9113,-10.6704 -1.9404,0 -3.699,0.2437 -4.7905,0.5462 l -2.0002,-3.2136 5.9418,-0.3635 c 10.4877,-0.666 16.6712,-0.9696 16.6712,-9.0326 0,-6.9704 -6.1236,-10.911 -16.6712,-10.911 -10.974,0 -15.1572,2.7881 -15.1572,7.5776 0,2.7282 1.2123,4.1822 3.3344,6.1835 -2.0013,0.8488 -2.6673,2.3638 -2.6673,3.9995 0,1.3352 0.666,2.5465 1.7586,3.699 1.0915,1.1524 2.3028,2.3038 3.7588,3.637 -2.9709,1.456 -5.2138,4.6077 -5.2138,9.0945 0,6.9715 4.6066,11.7609 13.8829,11.7609 2.6065,0 4.1833,-0.2426 5.5774,-0.6061 l 11.8218,0 0,-5.153 -5.5773,-0.4244"
             style="fill:#1f242d;fill-opacity:1;fill-rule:nonzero;stroke:none"
             id="path4216" />
          <path
             d="m 525.6407,455.3698 c -3.4562,0 -5.4565,2.0013 -5.4565,5.4565 0,3.4553 2.0003,5.3347 5.4565,5.3347 3.5152,0 5.5165,-1.8794 5.5165,-5.3347 0,-3.4552 -2.0013,-5.4565 -5.5165,-5.4565 z m -7.8213,-36.4341 0,4.7884 3.0918,0.4245 c 0.8488,0.1218 0.9697,0.3036 0.9697,1.2123 l 0,17.8236 c 0,0.6671 -0.1808,1.0915 -0.7879,1.2733 l -3.2736,1.1524 0.6671,4.9103 12.5488,0 0,-25.1596 c 0,-0.9697 0.062,-1.0905 0.9707,-1.2123 l 3.0918,-0.4245 0,-4.7884 -17.2784,0"
             style="fill:#1f242d;fill-opacity:1;fill-rule:nonzero;stroke:none"
             id="path4218" />
          <path
             d="m 556.799,438.1534 c -0.0599,5.092 -2.0611,6.4262 -4.5467,6.4262 -2.6075,0 -4.7296,-1.456 -5.0931,-6.4262 l 9.6398,0 z m 8.7301,-16.8539 c -3.7589,-1.8185 -7.8812,-3.0918 -12.428,-3.0918 -11.701,0 -15.7015,7.274 -15.7015,16.7321 0,10.973 6.7288,16.1868 15.0344,16.1868 8.0021,0 13.3378,-4.1832 13.3378,-14.6709 0,-0.728 -0.062,-2.8501 -0.1219,-4.0624 l -18.5516,0 c 0.3036,-4.3041 2.183,-7.1532 7.1542,-7.1532 2.3638,0 4.9103,0.5452 9.0337,2.0601 l 2.2429,-6.0007"
             style="fill:#1f242d;fill-opacity:1;fill-rule:nonzero;stroke:none"
             id="path4220" />
          <path
             d="m 587.7157,441.0025 -0.6062,3.1527 c -0.0609,0.4843 -0.1817,0.727 -0.6061,0.8488 -0.788,0.2417 -2.243,0.4843 -3.8797,0.4843 -3.0319,0 -4.7296,-1.1514 -4.7296,-3.0917 0,-2.4856 3.3345,-3.0309 7.0324,-3.8797 4.7894,-1.0915 10.1851,-2.7892 10.1851,-9.8815 0,-7.3979 -6.0018,-10.4277 -13.7013,-10.4277 -5.5164,0 -10.912,1.455 -12.0036,2.181 l 0,8.792 6.4872,-0.4854 0.6061,-3.4552 c 0.061,-0.5463 0.1818,-0.7879 0.727,-0.9088 0.7281,-0.2437 2.3648,-0.6072 4.6687,-0.6072 3.2126,0 5.0321,0.9098 5.0321,3.1527 0,2.4247 -2.4257,3.1527 -5.5175,3.698 -5.092,0.9097 -11.7609,2.0012 -11.7609,9.9424 0,7.5177 6.4262,10.6094 13.3987,10.6094 4.7884,0 9.457,-1.0915 11.1547,-1.7586 l 0,-8.7899 -6.4871,0.4244"
             style="fill:#1f242d;fill-opacity:1;fill-rule:nonzero;stroke:none"
             id="path4222" />
          <path
             d="m 135.7939,386.2574 8.0406,4.6879 0.5057,-0.8488 -7.3746,-4.2615 7.4142,-4.2838 -0.5047,-0.8488 -8.0812,4.7082 0,0.8468"
             style="fill:#1f242d;fill-opacity:1;fill-rule:nonzero;stroke:none"
             id="path4224" />
          <path
             d="m 153.2317,381.9756 c 0.7676,-0.1421 1.5555,-0.202 2.2622,-0.202 2.1221,0 2.6267,0.8884 2.6267,2.3637 l 0,3.961 c 0,1.1697 -0.5249,1.7149 -1.8185,1.7149 -1.192,0 -2.1414,-0.3229 -3.0704,-0.8468 l 0,-6.9908 z m 6.0606,2.2013 c 0,-2.2013 -0.9696,-3.4745 -3.9396,-3.4745 -0.8488,0 -2.384,0.1411 -3.2928,0.3635 l 0,13.6972 1.1718,0.1624 0,-4.7275 c 0.8082,0.4244 1.8987,0.7473 3.2318,0.7473 1.981,0 2.8288,-1.1321 2.8288,-2.8694 l 0,-3.899"
             style="fill:#1f242d;fill-opacity:1;fill-rule:nonzero;stroke:none"
             id="path4226" />
          <path
             d="m 166.608,389.7939 c -1.0306,-0.4447 -2.1617,-1.192 -3.1111,-1.8185 l 0,-7.0699 -1.1717,0 0,9.8378 1.0499,0 0.0609,-1.4957 c 1.0509,0.6885 2.1008,1.3545 3.0298,1.6977 l 0.1422,-1.1514"
             style="fill:#1f242d;fill-opacity:1;fill-rule:nonzero;stroke:none"
             id="path4228" />
          <path
             d="m 168.6296,390.7433 1.1717,0 0,-9.8378 -1.1717,0 0,9.8378 z m 0,4.0198 1.1717,0 0,-2.1617 -1.1717,0 0,2.1617 z"
             style="fill:#1f242d;fill-opacity:1;fill-rule:nonzero;stroke:none"
             id="path4230" />
          <path
             d="m 179.2563,380.9055 0,7.9594 c 0,0.7259 -0.3838,0.9899 -1.0712,0.9899 -0.8082,0 -2.5445,-0.4853 -3.7771,-1.1321 l 0,-7.8172 -1.1717,0 0,9.8378 1.0305,0 0.0803,-0.8885 c 1.0509,0.5057 2.8084,1.0905 4.0005,1.0905 1.5352,0 2.0804,-0.8681 2.0804,-2.2226 l 0,-7.8172 -1.1717,0"
             style="fill:#1f242d;fill-opacity:1;fill-rule:nonzero;stroke:none"
             id="path4232" />
          <path
             d="m 187.1375,389.9361 c -1.9596,0 -2.646,-0.6072 -2.646,-2.4054 l 0,-0.2021 c 0,-1.8581 0.8478,-2.4033 2.646,-2.4033 1.7982,0 2.6471,0.6264 2.6471,2.4033 l 0,0.2021 c 0,1.7789 -0.6874,2.4054 -2.6471,2.4054 z m 0,-6.0211 c -0.5046,0 -0.9087,0.0406 -1.3128,0.1218 -0.5453,-0.4447 -0.7676,-0.8295 -0.7676,-1.2935 0,-0.3849 0.2223,-0.6468 0.8884,-0.7077 1.2326,-0.1016 1.5159,-0.1209 2.8288,-0.2224 1.7982,-0.1411 2.444,-0.9697 2.444,-2.3435 0,-2.0388 -1.0093,-2.7475 -4.2016,-2.7475 -0.9087,0 -2.4044,0.1827 -3.4553,0.4843 l 0.1818,0.9301 c 0.9707,-0.2224 2.2632,-0.4041 3.3141,-0.4041 2.6663,0 3.0105,0.5452 3.0105,1.6773 0,0.9697 -0.4041,1.3525 -1.5768,1.4337 -1.2519,0.0813 -1.3535,0.0813 -2.6663,0.1828 -1.455,0.1208 -1.9394,0.8681 -1.9394,1.7373 0,0.5249 0.2214,1.1321 0.9291,1.656 -0.99,0.5666 -1.454,1.5566 -1.454,2.9506 l 0,0.1209 c 0,2.2226 0.99,3.4542 3.7771,3.4542 0.6671,0 1.1921,-0.0609 1.6571,-0.202 l 2.7069,0 0,-0.8489 -1.2326,-0.1005 c 0.4447,-0.5655 0.6468,-1.3535 0.6468,-2.3028 l 0,-0.1209 c 0,-2.2236 -1.1921,-3.4552 -3.7782,-3.4552"
             style="fill:#1f242d;fill-opacity:1;fill-rule:nonzero;stroke:none"
             id="path4234" />
          <path
             d="m 194.1293,390.7433 1.1717,0 0,-9.8378 -1.1717,0 0,9.8378 z m 0,4.0198 1.1717,0 0,-2.1617 -1.1717,0 0,2.1617 z"
             style="fill:#1f242d;fill-opacity:1;fill-rule:nonzero;stroke:none"
             id="path4236" />
          <path
             d="m 204.757,380.9055 0,7.9594 c 0,0.7259 -0.3838,0.9899 -1.0701,0.9899 -0.8083,0 -2.5466,-0.4853 -3.7792,-1.1321 l 0,-7.8172 -1.1707,0 0,9.8378 1.0296,0 0.0812,-0.8885 c 1.0509,0.5057 2.8074,1.0905 4.0005,1.0905 1.5352,0 2.0805,-0.8681 2.0805,-2.2226 l 0,-7.8172 -1.1718,0"
             style="fill:#1f242d;fill-opacity:1;fill-rule:nonzero;stroke:none"
             id="path4238" />
          <path
             d="m 212.6383,389.9361 c -1.9597,0 -2.6461,-0.6072 -2.6461,-2.4054 l 0,-0.2021 c 0,-1.8581 0.8479,-2.4033 2.6461,-2.4033 1.7982,0 2.646,0.6264 2.646,2.4033 l 0,0.2021 c 0,1.7789 -0.6864,2.4054 -2.646,2.4054 z m 0,-6.0211 c -0.5057,0 -0.9088,0.0406 -1.3129,0.1218 -0.5463,-0.4447 -0.7676,-0.8295 -0.7676,-1.2935 0,-0.3849 0.2213,-0.6468 0.8884,-0.7077 1.2327,-0.1016 1.5149,-0.1209 2.8288,-0.2224 1.7982,-0.1411 2.445,-0.9697 2.445,-2.3435 0,-2.0388 -1.0113,-2.7475 -4.2026,-2.7475 -0.9097,0 -2.4043,0.1827 -3.4552,0.4843 l 0.1817,0.9301 c 0.9697,-0.2224 2.2632,-0.4041 3.3131,-0.4041 2.6674,0 3.0106,0.5452 3.0106,1.6773 0,0.9697 -0.4042,1.3525 -1.5759,1.4337 -1.2519,0.0813 -1.3534,0.0813 -2.6663,0.1828 -1.455,0.1208 -1.9404,0.8681 -1.9404,1.7373 0,0.5249 0.2234,1.1321 0.9301,1.656 -0.99,0.5666 -1.455,1.5566 -1.455,2.9506 l 0,0.1209 c 0,2.2226 0.99,3.4542 3.7782,3.4542 0.667,0 1.192,-0.0609 1.657,-0.202 l 2.707,0 0,-0.8489 -1.2327,-0.1005 c 0.4447,-0.5655 0.6468,-1.3535 0.6468,-2.3028 l 0,-0.1209 c 0,-2.2236 -1.192,-3.4552 -3.7781,-3.4552"
             style="fill:#1f242d;fill-opacity:1;fill-rule:nonzero;stroke:none"
             id="path4240" />
          <path
             d="m 227.7925,380.9055 -1.454,-3.9802 -1.1525,0 1.4754,3.9802 -0.6671,0 -3.3334,9.8378 1.192,0 3.0308,-9.0113 3.0502,9.0113 1.192,0 -3.3334,-9.8378"
             style="fill:#1f242d;fill-opacity:1;fill-rule:nonzero;stroke:none"
             id="path4242" />
          <path
             d="m 239.0071,387.4098 c 0,1.6581 -0.8082,2.4846 -2.647,2.4846 -1.8378,0 -2.6461,-0.8265 -2.6461,-2.4846 l 0,-3.1709 c 0,-1.6581 0.8083,-2.4846 2.6461,-2.4846 1.8388,0 2.647,0.8265 2.647,2.4846 l 0,3.1709 z m -2.647,-6.7074 c -2.7679,0 -3.8178,1.5555 -3.8178,3.5761 l 0,3.0917 c 0,2.0206 1.0499,3.5751 3.8178,3.5751 2.7678,0 3.8187,-1.5545 3.8187,-3.5751 l 0,-3.0917 c 0,-2.0206 -1.0509,-3.5761 -3.8187,-3.5761"
             style="fill:#1f242d;fill-opacity:1;fill-rule:nonzero;stroke:none"
             id="path4244" />
          <path
             d="m 244.1793,390.7433 0,-7.9604 c 0,-0.7281 0.3849,-0.989 1.0712,-0.989 0.8083,0 2.5466,0.4853 3.7782,1.1321 l 0,7.8173 1.1717,0 0,-9.8378 -1.0296,0 -0.0822,0.8884 c -1.0499,-0.5056 -2.8075,-1.0915 -3.9995,-1.0915 -1.5352,0 -2.0805,0.8691 -2.0805,2.2236 l 0,7.8173 1.1707,0"
             style="fill:#1f242d;fill-opacity:1;fill-rule:nonzero;stroke:none"
             id="path4246" />
          <path
             d="m 257.9202,389.7939 c -1.0306,-0.4447 -2.1617,-1.192 -3.1111,-1.8185 l 0,-7.0699 -1.1717,0 0,9.8378 1.0499,0 0.0619,-1.4957 c 1.0499,0.6885 2.0998,1.3545 3.0299,1.6977 l 0.1411,-1.1514"
             style="fill:#1f242d;fill-opacity:1;fill-rule:nonzero;stroke:none"
             id="path4248" />
          <path
             d="m 266.9731,380.7024 c -0.99,0 -2.1617,0.2031 -2.8897,0.5056 l 0.2021,0.9484 c 0.8488,-0.262 1.8794,-0.4021 2.6064,-0.4021 1.8185,0 2.182,0.3422 2.182,1.5941 0,1.4154 -0.0406,1.5566 -2.2835,2.0825 -2.4643,0.5849 -2.6664,1.191 -2.6664,2.9902 0,1.6358 0.7879,2.5242 3.2126,2.5242 0.9098,0 2.0196,-0.1208 2.7872,-0.3432 l -0.1208,-0.9889 c -0.787,0.1604 -1.9394,0.2812 -2.7476,0.2812 -1.717,0 -1.9596,-0.4437 -1.9596,-1.5149 0,-1.3524 0.0802,-1.4956 1.8987,-1.9596 2.8897,-0.728 3.0511,-1.191 3.0511,-3.0299 0,-1.7789 -0.6457,-2.6876 -3.2725,-2.6876"
             style="fill:#1f242d;fill-opacity:1;fill-rule:nonzero;stroke:none"
             id="path4250" />
          <path
             d="m 276.8942,380.9055 -1.454,-3.9802 -1.1514,0 1.4743,3.9802 -0.6671,0 -3.3334,9.8378 1.192,0 3.0308,-9.0113 3.0512,9.0113 1.191,0 -3.3334,-9.8378"
             style="fill:#1f242d;fill-opacity:1;fill-rule:nonzero;stroke:none"
             id="path4252" />
          <path
             d="m 284.7348,380.7024 c -0.991,0 -2.1617,0.2031 -2.8897,0.5056 l 0.202,0.9484 c 0.8489,-0.262 1.8795,-0.4021 2.6065,-0.4021 1.8185,0 2.182,0.3422 2.182,1.5941 0,1.4154 -0.0407,1.5566 -2.2826,2.0825 -2.4653,0.5849 -2.6673,1.191 -2.6673,2.9902 0,1.6358 0.7889,2.5242 3.2126,2.5242 0.9087,0 2.0205,-0.1208 2.7871,-0.3432 l -0.1208,-0.9889 c -0.7879,0.1604 -1.9393,0.2812 -2.7475,0.2812 -1.717,0 -1.9587,-0.4437 -1.9587,-1.5149 0,-1.3524 0.0802,-1.4956 1.8988,-1.9596 2.8886,-0.728 3.0511,-1.191 3.0511,-3.0299 0,-1.7789 -0.6468,-2.6876 -3.2735,-2.6876"
             style="fill:#1f242d;fill-opacity:1;fill-rule:nonzero;stroke:none"
             id="path4254" />
          <path
             d="m 296.0083,381.0852 c -0.5655,-0.2214 -1.3535,-0.3828 -2.0602,-0.3828 -1.5555,0 -2.2216,0.5655 -2.2216,2.1221 l 0,6.9095 -1.8997,0 0,1.0093 1.8997,0 0,2.3241 1.1708,0.1604 0,-2.4845 3.0105,0 -0.1208,-1.0093 -2.8897,0 0,-6.7887 c 0,-0.8681 0.1218,-1.2326 1.1311,-1.2326 0.5452,0 1.1717,0.1005 1.7586,0.2833 l 0.2213,-0.9108"
             style="fill:#1f242d;fill-opacity:1;fill-rule:nonzero;stroke:none"
             id="path4256" />
          <path
             d="m 299.0605,386.5214 4.9306,0 0,0.8884 c 0,1.6581 -0.5859,2.5263 -2.4247,2.5263 -1.8388,0 -2.5059,-0.8682 -2.5059,-2.5263 l 0,-0.8884 z m 2.5668,-4.7894 c 1.0103,0 2.1414,0.202 3.1111,0.466 l 0.201,-0.9493 c -0.9077,-0.3239 -2.2013,-0.5463 -3.3933,-0.5463 -2.7679,0 -3.6563,1.4347 -3.6563,3.5761 l 0,3.0917 c 0,2.0206 0.9077,3.5751 3.6766,3.5751 2.7678,0 3.5761,-1.5545 3.5761,-3.5751 l 0,-1.8997 -6.082,0 0,-1.2316 c 0,-1.7596 0.6061,-2.5069 2.5668,-2.5069"
             style="fill:#1f242d;fill-opacity:1;fill-rule:nonzero;stroke:none"
             id="path4258" />
          <path
             d="m 320.1139,380.9055 0,7.9594 c 0,0.7259 -0.3838,0.9899 -1.0702,0.9899 -0.93,0 -2.5465,-0.4853 -3.7791,-1.1321 l 0,-7.8172 -1.1707,0 0,7.9594 c 0,0.7259 -0.3848,0.9899 -1.0712,0.9899 -0.8083,0 -2.5465,-0.4853 -3.7772,-1.1321 l 0,-7.8172 -1.1727,0 0,9.8378 1.0306,0 0.0802,-0.8885 c 1.0509,0.5057 2.8095,1.0905 4.0005,1.0905 1.0509,0 1.6368,-0.4041 1.8997,-1.0905 1.1312,0.526 2.9283,1.0905 4.1204,1.0905 1.5362,0 2.0815,-0.8681 2.0815,-2.2226 l 0,-7.8172 -1.1718,0"
             style="fill:#1f242d;fill-opacity:1;fill-rule:nonzero;stroke:none"
             id="path4260" />
          <path
             d="m 334.1381,381.0852 c -0.5656,-0.2214 -1.3535,-0.3828 -2.0602,-0.3828 -1.5555,0 -2.2226,0.5655 -2.2226,2.1221 l 0,6.9095 -1.8998,0 0,1.0093 1.8998,0 0,2.3241 1.1717,0.1604 0,-2.4845 3.0105,0 -0.1218,-1.0093 -2.8887,0 0,-6.7887 c 0,-0.8681 0.1218,-1.2326 1.1311,-1.2326 0.5453,0 1.1717,0.1005 1.7576,0.2833 l 0.2224,-0.9108"
             style="fill:#1f242d;fill-opacity:1;fill-rule:nonzero;stroke:none"
             id="path4262" />
          <path
             d="m 342.4823,387.4098 c 0,1.6581 -0.8072,2.4846 -2.6471,2.4846 -1.8378,0 -2.646,-0.8265 -2.646,-2.4846 l 0,-3.1709 c 0,-1.6581 0.8082,-2.4846 2.646,-2.4846 1.8399,0 2.6471,0.8265 2.6471,2.4846 l 0,3.1709 z m -2.6471,-6.7074 c -2.7668,0 -3.8177,1.5555 -3.8177,3.5761 l 0,3.0917 c 0,2.0206 1.0509,3.5751 3.8177,3.5751 2.7689,0 3.8188,-1.5545 3.8188,-3.5751 l 0,-3.0917 c 0,-2.0206 -1.0499,-3.5761 -3.8188,-3.5761"
             style="fill:#1f242d;fill-opacity:1;fill-rule:nonzero;stroke:none"
             id="path4264" />
          <path
             d="m 351.0316,380.9055 0,13.8576 1.1717,0.1624 0,-14.02 -1.1717,0"
             style="fill:#1f242d;fill-opacity:1;fill-rule:nonzero;stroke:none"
             id="path4266" />
          <path
             d="m 355.6383,390.7433 1.1717,0 0,-9.8378 -1.1717,0 0,9.8378 z m 0,4.0198 1.1717,0 0,-2.1617 -1.1717,0 0,2.1617 z"
             style="fill:#1f242d;fill-opacity:1;fill-rule:nonzero;stroke:none"
             id="path4268" />
          <path
             d="m 365.4771,393.9762 c -0.6458,0.1208 -1.2326,0.1817 -1.7779,0.1817 -1.1108,0 -1.454,-0.4244 -1.454,-1.4946 l 0,-1.92 3.0298,0 -0.1208,-1.0093 -2.909,0 0,-8.8285 -1.1727,0 0,8.8285 -1.8378,0 0,1.0093 1.8378,0 0,2.0601 c 0,1.6165 0.991,2.3648 2.5455,2.3648 0.5665,0 1.4347,-0.1015 2.0216,-0.2823 l -0.1625,-0.9097"
             style="fill:#1f242d;fill-opacity:1;fill-rule:nonzero;stroke:none"
             id="path4270" />
          <path
             d="m 367.8419,386.5214 4.9305,0 0,0.8884 c 0,1.6581 -0.5858,2.5263 -2.4246,2.5263 -1.8378,0 -2.5059,-0.8682 -2.5059,-2.5263 l 0,-0.8884 z m 2.5668,-4.7894 c 1.0103,0 2.1414,0.202 3.1111,0.466 l 0.201,-0.9493 c -0.9088,-0.3239 -2.2013,-0.5463 -3.3933,-0.5463 -2.7679,0 -3.6574,1.4347 -3.6574,3.5761 l 0,3.0917 c 0,2.0206 0.9098,3.5751 3.6777,3.5751 2.7678,0 3.5761,-1.5545 3.5761,-3.5751 l 0,-1.8997 -6.082,0 0,-1.2316 c 0,-1.7596 0.6072,-2.5069 2.5668,-2.5069"
             style="fill:#1f242d;fill-opacity:1;fill-rule:nonzero;stroke:none"
             id="path4272" />
          <path
             d="m 382.067,378.5407 -1.1717,0 4.9702,16.0223 1.192,0 -4.9905,-16.0223"
             style="fill:#1f242d;fill-opacity:1;fill-rule:nonzero;stroke:none"
             id="path4274" />
        </g>
      </g>
      <g
         id="g4276">
        <g
           id="g4278"
           clip-path="url(#clipPath4280)">
          <g
             id="g4284"
             clip-path="url(#clipPath4286)">
            <path
               d="m 398.5747,385.4106 -8.0812,-4.7082 -0.5046,0.8488 7.4151,4.2838 -7.3745,4.2615 0.5046,0.8488 8.0406,-4.6879 0,-0.8468"
               style="fill:#1f242d;fill-opacity:1;fill-rule:nonzero;stroke:none"
               id="path4290" />
            <path
               d="m 39.55417,387.62 6.23227,0 9.95153,23.5492 10.07946,-23.5492 6.23227,0 -13.25956,29.5896 -6.04037,0 -13.1956,-29.5896 m -7.2923,34.5425 0,-6.1043 46.88823,15.7177 0,6.1044 -46.88823,-15.7178 m 16.4488,24.6915 7.29231,0.329 -3.91116,-6.1044 3.58218,-2.12 3.31718,6.4333 3.31717,-6.4333 3.64616,2.12 -3.91117,6.1044 7.29231,-0.329 0,4.1762 -7.29231,-0.329 3.91117,6.1592 -3.64616,2.0652 -3.31717,-6.4333 -3.31718,6.4333 -3.58218,-2.0652 3.91116,-6.1592 -7.29231,0.329 0,-4.1762 m 7.52076,-80.855 C 25.72804,365.999 1,390.727 1,421.2304 c 0,30.5034 24.72804,55.2315 55.23143,55.2315 30.5034,0 55.23147,-24.7281 55.23147,-55.2315 0,-30.5034 -24.72807,-55.2314 -55.23147,-55.2314"
               style="fill:#51bbed;fill-opacity:1;fill-rule:nonzero;stroke:none"
               id="path4292" />
          </g>
        </g>
      </g>
      <g
         id="g4294">
        <g
           id="g4296"
           clip-path="url(#clipPath4298)">
          <g
             id="g4302"
             clip-path="url(#clipPath4304)">
            <g
               id="g4308"
               clip-path="url(#clipPath4310)">
              <g
                 id="g4314">
                <path
                   d="m 1,366 594,0 0,110 -594,0 0,-110 z"
                   style="fill:url(#linearGradient4316);stroke:none"
                   id="path4322" />
              </g>
            </g>
          </g>
        </g>
      </g>
      <g
         id="g4324">
        <g
           id="g4326"
           clip-path="url(#clipPath4328)">
          <g
             id="g4332"
             clip-path="url(#clipPath4334)">
            <g
               id="g4338"
               clip-path="url(#clipPath4340)">
              <g
                 id="g4344">
                <path
                   d="m 1,366 594,0 0,110 -594,0 0,-110 z"
                   style="fill:url(#linearGradient4346);stroke:none"
                   id="path4352" />
              </g>
            </g>
          </g>
        </g>
      </g>
    </g>
  </g>
</svg>
